<mxfile host="app.diagrams.net" modified="2023-08-16T03:07:03.702Z" agent="Mozilla/5.0 (Windows NT 10.0; Win64; x64) AppleWebKit/537.36 (KHTML, like Gecko) Chrome/115.0.0.0 Safari/537.36" etag="HPrWUXoDNx9C_eopBINk" version="21.6.8" type="device">
  <diagram id="C5RBs43oDa-KdzZeNtuy" name="Page-1">
    <mxGraphModel dx="1050" dy="623" grid="1" gridSize="10" guides="1" tooltips="1" connect="1" arrows="1" fold="1" page="1" pageScale="1" pageWidth="827" pageHeight="1169" math="0" shadow="0">
      <root>
        <mxCell id="WIyWlLk6GJQsqaUBKTNV-0" />
        <mxCell id="WIyWlLk6GJQsqaUBKTNV-1" parent="WIyWlLk6GJQsqaUBKTNV-0" />
        <mxCell id="sBbS072iyXXfsRHacHDE-6" style="edgeStyle=orthogonalEdgeStyle;rounded=0;orthogonalLoop=1;jettySize=auto;html=1;" edge="1" parent="WIyWlLk6GJQsqaUBKTNV-1" source="sBbS072iyXXfsRHacHDE-0" target="sBbS072iyXXfsRHacHDE-3">
          <mxGeometry relative="1" as="geometry" />
        </mxCell>
        <mxCell id="sBbS072iyXXfsRHacHDE-7" style="edgeStyle=orthogonalEdgeStyle;rounded=0;orthogonalLoop=1;jettySize=auto;html=1;" edge="1" parent="WIyWlLk6GJQsqaUBKTNV-1" source="sBbS072iyXXfsRHacHDE-0" target="sBbS072iyXXfsRHacHDE-4">
          <mxGeometry relative="1" as="geometry">
            <Array as="points">
              <mxPoint x="130" y="180" />
            </Array>
          </mxGeometry>
        </mxCell>
        <mxCell id="sBbS072iyXXfsRHacHDE-8" style="edgeStyle=orthogonalEdgeStyle;rounded=0;orthogonalLoop=1;jettySize=auto;html=1;" edge="1" parent="WIyWlLk6GJQsqaUBKTNV-1" source="sBbS072iyXXfsRHacHDE-0" target="sBbS072iyXXfsRHacHDE-1">
          <mxGeometry relative="1" as="geometry">
            <Array as="points">
              <mxPoint x="130" y="440" />
            </Array>
          </mxGeometry>
        </mxCell>
        <mxCell id="sBbS072iyXXfsRHacHDE-14" style="edgeStyle=orthogonalEdgeStyle;rounded=0;orthogonalLoop=1;jettySize=auto;html=1;" edge="1" parent="WIyWlLk6GJQsqaUBKTNV-1" source="sBbS072iyXXfsRHacHDE-0" target="sBbS072iyXXfsRHacHDE-11">
          <mxGeometry relative="1" as="geometry" />
        </mxCell>
        <mxCell id="sBbS072iyXXfsRHacHDE-0" value="Input Audio&lt;br&gt;" style="rounded=1;whiteSpace=wrap;html=1;" vertex="1" parent="WIyWlLk6GJQsqaUBKTNV-1">
          <mxGeometry x="40" y="280" width="120" height="60" as="geometry" />
        </mxCell>
        <mxCell id="sBbS072iyXXfsRHacHDE-19" style="edgeStyle=orthogonalEdgeStyle;rounded=0;orthogonalLoop=1;jettySize=auto;html=1;entryX=0;entryY=0.5;entryDx=0;entryDy=0;" edge="1" parent="WIyWlLk6GJQsqaUBKTNV-1" source="sBbS072iyXXfsRHacHDE-1" target="sBbS072iyXXfsRHacHDE-17">
          <mxGeometry relative="1" as="geometry" />
        </mxCell>
        <mxCell id="sBbS072iyXXfsRHacHDE-1" value="Phoneme&lt;br&gt;Sequence&lt;br&gt;Extraction" style="rounded=1;whiteSpace=wrap;html=1;" vertex="1" parent="WIyWlLk6GJQsqaUBKTNV-1">
          <mxGeometry x="240" y="410" width="120" height="60" as="geometry" />
        </mxCell>
        <mxCell id="sBbS072iyXXfsRHacHDE-22" style="edgeStyle=orthogonalEdgeStyle;rounded=0;orthogonalLoop=1;jettySize=auto;html=1;" edge="1" parent="WIyWlLk6GJQsqaUBKTNV-1" source="sBbS072iyXXfsRHacHDE-3" target="sBbS072iyXXfsRHacHDE-20">
          <mxGeometry relative="1" as="geometry" />
        </mxCell>
        <mxCell id="sBbS072iyXXfsRHacHDE-3" value="Temporal Dependencies" style="rounded=1;whiteSpace=wrap;html=1;" vertex="1" parent="WIyWlLk6GJQsqaUBKTNV-1">
          <mxGeometry x="240" y="280" width="120" height="60" as="geometry" />
        </mxCell>
        <mxCell id="sBbS072iyXXfsRHacHDE-23" style="edgeStyle=orthogonalEdgeStyle;rounded=0;orthogonalLoop=1;jettySize=auto;html=1;" edge="1" parent="WIyWlLk6GJQsqaUBKTNV-1" source="sBbS072iyXXfsRHacHDE-4" target="sBbS072iyXXfsRHacHDE-21">
          <mxGeometry relative="1" as="geometry" />
        </mxCell>
        <mxCell id="sBbS072iyXXfsRHacHDE-4" value="Spatial&lt;br&gt;Dependencies" style="rounded=1;whiteSpace=wrap;html=1;" vertex="1" parent="WIyWlLk6GJQsqaUBKTNV-1">
          <mxGeometry x="240" y="150" width="120" height="60" as="geometry" />
        </mxCell>
        <mxCell id="sBbS072iyXXfsRHacHDE-9" value="Text" style="text;html=1;align=center;verticalAlign=middle;resizable=0;points=[];autosize=1;strokeColor=none;fillColor=none;" vertex="1" parent="WIyWlLk6GJQsqaUBKTNV-1">
          <mxGeometry x="140" y="400" width="50" height="30" as="geometry" />
        </mxCell>
        <mxCell id="sBbS072iyXXfsRHacHDE-10" value="Audio" style="text;html=1;align=center;verticalAlign=middle;resizable=0;points=[];autosize=1;strokeColor=none;fillColor=none;" vertex="1" parent="WIyWlLk6GJQsqaUBKTNV-1">
          <mxGeometry x="160" y="220" width="50" height="30" as="geometry" />
        </mxCell>
        <mxCell id="sBbS072iyXXfsRHacHDE-15" style="edgeStyle=orthogonalEdgeStyle;rounded=0;orthogonalLoop=1;jettySize=auto;html=1;" edge="1" parent="WIyWlLk6GJQsqaUBKTNV-1" source="sBbS072iyXXfsRHacHDE-11" target="sBbS072iyXXfsRHacHDE-16">
          <mxGeometry relative="1" as="geometry">
            <mxPoint x="300" y="554.5" as="targetPoint" />
          </mxGeometry>
        </mxCell>
        <mxCell id="sBbS072iyXXfsRHacHDE-11" value="MFCC" style="rounded=1;whiteSpace=wrap;html=1;" vertex="1" parent="WIyWlLk6GJQsqaUBKTNV-1">
          <mxGeometry x="40" y="524.5" width="120" height="60" as="geometry" />
        </mxCell>
        <mxCell id="sBbS072iyXXfsRHacHDE-13" style="edgeStyle=orthogonalEdgeStyle;rounded=0;orthogonalLoop=1;jettySize=auto;html=1;entryX=0.5;entryY=1;entryDx=0;entryDy=0;" edge="1" parent="WIyWlLk6GJQsqaUBKTNV-1" source="sBbS072iyXXfsRHacHDE-12" target="sBbS072iyXXfsRHacHDE-11">
          <mxGeometry relative="1" as="geometry" />
        </mxCell>
        <mxCell id="sBbS072iyXXfsRHacHDE-12" value="Speaker Verification&lt;br&gt;[locking, etc]" style="rounded=1;whiteSpace=wrap;html=1;" vertex="1" parent="WIyWlLk6GJQsqaUBKTNV-1">
          <mxGeometry x="40" y="670" width="120" height="60" as="geometry" />
        </mxCell>
        <mxCell id="sBbS072iyXXfsRHacHDE-28" style="edgeStyle=orthogonalEdgeStyle;rounded=0;orthogonalLoop=1;jettySize=auto;html=1;" edge="1" parent="WIyWlLk6GJQsqaUBKTNV-1" source="sBbS072iyXXfsRHacHDE-16" target="sBbS072iyXXfsRHacHDE-24">
          <mxGeometry relative="1" as="geometry">
            <Array as="points">
              <mxPoint x="540" y="555" />
              <mxPoint x="540" y="480" />
            </Array>
          </mxGeometry>
        </mxCell>
        <mxCell id="sBbS072iyXXfsRHacHDE-16" value="Encoder&lt;br&gt;Encodec" style="rounded=1;whiteSpace=wrap;html=1;" vertex="1" parent="WIyWlLk6GJQsqaUBKTNV-1">
          <mxGeometry x="294" y="525" width="120" height="60" as="geometry" />
        </mxCell>
        <mxCell id="sBbS072iyXXfsRHacHDE-27" style="edgeStyle=orthogonalEdgeStyle;rounded=0;orthogonalLoop=1;jettySize=auto;html=1;" edge="1" parent="WIyWlLk6GJQsqaUBKTNV-1" source="sBbS072iyXXfsRHacHDE-17" target="sBbS072iyXXfsRHacHDE-24">
          <mxGeometry relative="1" as="geometry">
            <Array as="points">
              <mxPoint x="560" y="440" />
              <mxPoint x="560" y="410" />
            </Array>
          </mxGeometry>
        </mxCell>
        <mxCell id="sBbS072iyXXfsRHacHDE-17" value="Phoneme&lt;br&gt;Encoder" style="rounded=1;whiteSpace=wrap;html=1;" vertex="1" parent="WIyWlLk6GJQsqaUBKTNV-1">
          <mxGeometry x="400" y="410" width="120" height="60" as="geometry" />
        </mxCell>
        <mxCell id="sBbS072iyXXfsRHacHDE-18" value="Speaker &lt;br&gt;Embedding" style="text;html=1;align=center;verticalAlign=middle;resizable=0;points=[];autosize=1;strokeColor=none;fillColor=none;" vertex="1" parent="WIyWlLk6GJQsqaUBKTNV-1">
          <mxGeometry x="180" y="565" width="80" height="40" as="geometry" />
        </mxCell>
        <mxCell id="sBbS072iyXXfsRHacHDE-26" style="edgeStyle=orthogonalEdgeStyle;rounded=0;orthogonalLoop=1;jettySize=auto;html=1;" edge="1" parent="WIyWlLk6GJQsqaUBKTNV-1" source="sBbS072iyXXfsRHacHDE-20" target="sBbS072iyXXfsRHacHDE-24">
          <mxGeometry relative="1" as="geometry" />
        </mxCell>
        <mxCell id="sBbS072iyXXfsRHacHDE-20" value="Temporal dependencies&lt;br&gt;Encoder" style="rounded=1;whiteSpace=wrap;html=1;" vertex="1" parent="WIyWlLk6GJQsqaUBKTNV-1">
          <mxGeometry x="400" y="280" width="120" height="60" as="geometry" />
        </mxCell>
        <mxCell id="sBbS072iyXXfsRHacHDE-25" style="edgeStyle=orthogonalEdgeStyle;rounded=0;orthogonalLoop=1;jettySize=auto;html=1;" edge="1" parent="WIyWlLk6GJQsqaUBKTNV-1" source="sBbS072iyXXfsRHacHDE-21" target="sBbS072iyXXfsRHacHDE-24">
          <mxGeometry relative="1" as="geometry">
            <Array as="points">
              <mxPoint x="560" y="180" />
              <mxPoint x="560" y="260" />
            </Array>
          </mxGeometry>
        </mxCell>
        <mxCell id="sBbS072iyXXfsRHacHDE-21" value="Spatial&amp;nbsp;&lt;br&gt;dependencies&lt;br&gt;Encoder" style="rounded=1;whiteSpace=wrap;html=1;" vertex="1" parent="WIyWlLk6GJQsqaUBKTNV-1">
          <mxGeometry x="400" y="150" width="120" height="60" as="geometry" />
        </mxCell>
        <mxCell id="sBbS072iyXXfsRHacHDE-31" style="edgeStyle=orthogonalEdgeStyle;rounded=0;orthogonalLoop=1;jettySize=auto;html=1;" edge="1" parent="WIyWlLk6GJQsqaUBKTNV-1" source="sBbS072iyXXfsRHacHDE-24" target="sBbS072iyXXfsRHacHDE-30">
          <mxGeometry relative="1" as="geometry" />
        </mxCell>
        <mxCell id="sBbS072iyXXfsRHacHDE-24" value="Concatenation&lt;br&gt;of&lt;br&gt;Encoders" style="rounded=1;whiteSpace=wrap;html=1;" vertex="1" parent="WIyWlLk6GJQsqaUBKTNV-1">
          <mxGeometry x="600" y="200" width="120" height="330" as="geometry" />
        </mxCell>
        <mxCell id="sBbS072iyXXfsRHacHDE-33" style="edgeStyle=orthogonalEdgeStyle;rounded=0;orthogonalLoop=1;jettySize=auto;html=1;" edge="1" parent="WIyWlLk6GJQsqaUBKTNV-1" source="sBbS072iyXXfsRHacHDE-29" target="sBbS072iyXXfsRHacHDE-30">
          <mxGeometry relative="1" as="geometry">
            <Array as="points">
              <mxPoint x="870" y="380" />
              <mxPoint x="870" y="380" />
            </Array>
          </mxGeometry>
        </mxCell>
        <mxCell id="sBbS072iyXXfsRHacHDE-35" style="edgeStyle=orthogonalEdgeStyle;rounded=0;orthogonalLoop=1;jettySize=auto;html=1;entryX=1;entryY=0.5;entryDx=0;entryDy=0;" edge="1" parent="WIyWlLk6GJQsqaUBKTNV-1" source="sBbS072iyXXfsRHacHDE-29" target="sBbS072iyXXfsRHacHDE-34">
          <mxGeometry relative="1" as="geometry" />
        </mxCell>
        <mxCell id="sBbS072iyXXfsRHacHDE-29" value="Decoder" style="rounded=1;whiteSpace=wrap;html=1;" vertex="1" parent="WIyWlLk6GJQsqaUBKTNV-1">
          <mxGeometry x="780" y="440.5" width="120" height="84.5" as="geometry" />
        </mxCell>
        <mxCell id="sBbS072iyXXfsRHacHDE-32" style="edgeStyle=orthogonalEdgeStyle;rounded=0;orthogonalLoop=1;jettySize=auto;html=1;" edge="1" parent="WIyWlLk6GJQsqaUBKTNV-1" source="sBbS072iyXXfsRHacHDE-30" target="sBbS072iyXXfsRHacHDE-29">
          <mxGeometry relative="1" as="geometry">
            <Array as="points">
              <mxPoint x="820" y="380" />
              <mxPoint x="820" y="380" />
            </Array>
          </mxGeometry>
        </mxCell>
        <mxCell id="sBbS072iyXXfsRHacHDE-30" value="Attention" style="rounded=1;whiteSpace=wrap;html=1;" vertex="1" parent="WIyWlLk6GJQsqaUBKTNV-1">
          <mxGeometry x="780" y="220" width="120" height="100" as="geometry" />
        </mxCell>
        <mxCell id="sBbS072iyXXfsRHacHDE-37" style="edgeStyle=orthogonalEdgeStyle;rounded=0;orthogonalLoop=1;jettySize=auto;html=1;" edge="1" parent="WIyWlLk6GJQsqaUBKTNV-1" source="sBbS072iyXXfsRHacHDE-34" target="sBbS072iyXXfsRHacHDE-36">
          <mxGeometry relative="1" as="geometry" />
        </mxCell>
        <mxCell id="sBbS072iyXXfsRHacHDE-34" value="Vocoder" style="rounded=1;whiteSpace=wrap;html=1;" vertex="1" parent="WIyWlLk6GJQsqaUBKTNV-1">
          <mxGeometry x="670" y="650" width="120" height="60" as="geometry" />
        </mxCell>
        <mxCell id="sBbS072iyXXfsRHacHDE-36" value="Output&lt;br&gt;Waveform" style="rounded=1;whiteSpace=wrap;html=1;" vertex="1" parent="WIyWlLk6GJQsqaUBKTNV-1">
          <mxGeometry x="450" y="650" width="120" height="60" as="geometry" />
        </mxCell>
        <mxCell id="sBbS072iyXXfsRHacHDE-38" value="Audio" style="text;html=1;align=center;verticalAlign=middle;resizable=0;points=[];autosize=1;strokeColor=none;fillColor=none;" vertex="1" parent="WIyWlLk6GJQsqaUBKTNV-1">
          <mxGeometry x="600" y="640" width="50" height="30" as="geometry" />
        </mxCell>
      </root>
    </mxGraphModel>
  </diagram>
</mxfile>
